<?xml version="1.0" standalone="no"?>
<!DOCTYPE svg PUBLIC "-//W3C//DTD SVG 20010904//EN"
 "http://www.w3.org/TR/2001/REC-SVG-20010904/DTD/svg10.dtd">
<svg version="1.0" xmlns="http://www.w3.org/2000/svg"
 width="96.000000pt" height="96.000000pt" viewBox="0 0 96.000000 96.000000"
 preserveAspectRatio="xMidYMid meet">
<metadata>
Created by potrace 1.11, written by Peter Selinger 2001-2013
</metadata>
<g transform="translate(0.000000,96.000000) scale(0.100000,-0.100000)"
fill="#000000" stroke="none">
<path d="M540 915 c0 -8 -7 -15 -15 -15 -8 0 -15 -7 -15 -15 0 -8 -7 -15 -15
-15 -12 0 -15 -13 -15 -60 l0 -60 -30 0 c-20 0 -30 -5 -30 -15 0 -8 -7 -15
-15 -15 -8 0 -15 -7 -15 -15 0 -8 -7 -15 -15 -15 -8 0 -15 -7 -15 -15 0 -8 -7
-15 -15 -15 -10 0 -15 -10 -15 -30 0 -20 -5 -30 -15 -30 -10 0 -15 -10 -15
-30 0 -20 -5 -30 -15 -30 -10 0 -15 -10 -15 -30 0 -20 -5 -30 -15 -30 -10 0
-15 -10 -15 -30 0 -20 -5 -30 -15 -30 -8 0 -15 -7 -15 -15 0 -8 -7 -15 -15
-15 -8 0 -15 -7 -15 -15 0 -8 -7 -15 -15 -15 -11 0 -15 -12 -15 -45 0 -43 -1
-45 -30 -45 -20 0 -30 -5 -30 -15 0 -8 -7 -15 -15 -15 -10 0 -15 -10 -15 -30
0 -20 5 -30 15 -30 10 0 15 -10 15 -30 0 -20 5 -30 15 -30 8 0 15 -7 15 -15 0
-8 7 -15 15 -15 8 0 15 -7 15 -15 0 -8 7 -15 15 -15 8 0 15 -7 15 -15 0 -10
10 -15 30 -15 20 0 30 -5 30 -15 0 -13 25 -15 165 -15 140 0 165 2 165 15 0
11 12 15 45 15 33 0 45 4 45 15 0 8 7 15 15 15 8 0 15 7 15 15 0 10 10 15 30
15 20 0 30 5 30 15 0 8 7 15 15 15 11 0 15 12 15 45 0 33 -4 45 -15 45 -8 0
-15 7 -15 15 0 8 -7 15 -15 15 -10 0 -15 10 -15 30 0 20 -5 30 -15 30 -10 0
-15 10 -15 30 0 20 -5 30 -15 30 -10 0 -15 10 -15 30 0 20 -5 30 -15 30 -8 0
-15 7 -15 15 0 8 -7 15 -15 15 -8 0 -15 7 -15 15 0 8 -7 15 -15 15 -8 0 -15 7
-15 15 0 8 -7 15 -15 15 -8 0 -15 7 -15 15 0 8 -7 15 -15 15 -11 0 -15 12 -15
45 0 33 4 45 15 45 10 0 15 10 15 30 l0 30 60 0 c47 0 60 3 60 15 0 8 7 15 15
15 8 0 15 7 15 15 0 8 7 15 15 15 12 0 15 13 15 60 0 47 -3 60 -15 60 -8 0
-15 7 -15 15 0 8 -7 15 -15 15 -8 0 -15 7 -15 15 0 12 -13 15 -60 15 -47 0
-60 -3 -60 -15z"/>
</g>
</svg>
